<svg width="22" height="33" viewBox="0 0 22 33" fill="none" xmlns="http://www.w3.org/2000/svg">
<path fill-rule="evenodd" clip-rule="evenodd" d="M3.14286 2.39743C2.72609 2.39743 2.32639 2.56087 2.03169 2.85179C1.73699 3.14271 1.57143 3.53729 1.57143 3.94871V25.6667C1.57143 26.0781 1.73699 26.4727 2.03169 26.7636C2.32639 27.0545 2.72609 27.2179 3.14286 27.2179H11.7857V28.7692H3.14286C2.30932 28.7692 1.50992 28.4423 0.920521 27.8605C0.331121 27.2787 0 26.4895 0 25.6667V3.94871C0 3.12586 0.331121 2.33671 0.920521 1.75487C1.50992 1.17303 2.30932 0.846149 3.14286 0.846149H18.8571C19.6907 0.846149 20.4901 1.17303 21.0795 1.75487C21.6689 2.33671 22 3.12586 22 3.94871V25.6667C22 26.4895 21.6689 27.2787 21.0795 27.8605C20.4901 28.4423 19.6907 28.7692 18.8571 28.7692H16.5V27.2179H18.8571C19.2739 27.2179 19.6736 27.0545 19.9683 26.7636C20.263 26.4727 20.4286 26.0781 20.4286 25.6667V3.94871C20.4286 3.53729 20.263 3.14271 19.9683 2.85179C19.6736 2.56087 19.2739 2.39743 18.8571 2.39743H3.14286Z" fill="#5969AA"/>
<path fill-rule="evenodd" clip-rule="evenodd" d="M6.60015 6.70655C6.60015 6.49876 6.68484 6.29948 6.83559 6.15255C6.98634 6.00562 7.1908 5.92307 7.404 5.92307H15.4425C15.6557 5.92307 15.8601 6.00562 16.0109 6.15255C16.1616 6.29948 16.2463 6.49876 16.2463 6.70655C16.2463 6.91434 16.1616 7.11362 16.0109 7.26055C15.8601 7.40748 15.6557 7.49002 15.4425 7.49002H7.404C7.1908 7.49002 6.98634 7.40748 6.83559 7.26055C6.68484 7.11362 6.60015 6.91434 6.60015 6.70655ZM3.38477 11.4074C3.38477 11.1996 3.46946 11.0003 3.62021 10.8534C3.77096 10.7065 3.97542 10.6239 4.18861 10.6239H18.6578C18.871 10.6239 19.0755 10.7065 19.2262 10.8534C19.377 11.0003 19.4617 11.1996 19.4617 11.4074C19.4617 11.6152 19.377 11.8145 19.2262 11.9614C19.0755 12.1083 18.871 12.1909 18.6578 12.1909H4.18861C3.97542 12.1909 3.77096 12.1083 3.62021 11.9614C3.46946 11.8145 3.38477 11.6152 3.38477 11.4074ZM3.38477 14.5413C3.38477 14.3335 3.46946 14.1342 3.62021 13.9873C3.77096 13.8404 3.97542 13.7578 4.18861 13.7578H18.6578C18.871 13.7578 19.0755 13.8404 19.2262 13.9873C19.377 14.1342 19.4617 14.3335 19.4617 14.5413C19.4617 14.7491 19.377 14.9484 19.2262 15.0953C19.0755 15.2422 18.871 15.3248 18.6578 15.3248H4.18861C3.97542 15.3248 3.77096 15.2422 3.62021 15.0953C3.46946 14.9484 3.38477 14.7491 3.38477 14.5413ZM3.38477 17.6752C3.38477 17.4674 3.46946 17.2681 3.62021 17.1212C3.77096 16.9743 3.97542 16.8917 4.18861 16.8917H18.6578C18.871 16.8917 19.0755 16.9743 19.2262 17.1212C19.377 17.2681 19.4617 17.4674 19.4617 17.6752C19.4617 17.883 19.377 18.0823 19.2262 18.2292C19.0755 18.3761 18.871 18.4587 18.6578 18.4587H4.18861C3.97542 18.4587 3.77096 18.3761 3.62021 18.2292C3.46946 18.0823 3.38477 17.883 3.38477 17.6752ZM14.6386 25.51C15.065 25.51 15.4739 25.3449 15.7754 25.051C16.0769 24.7572 16.2463 24.3586 16.2463 23.943C16.2463 23.5274 16.0769 23.1289 15.7754 22.835C15.4739 22.5412 15.065 22.3761 14.6386 22.3761C14.2122 22.3761 13.8033 22.5412 13.5018 22.835C13.2003 23.1289 13.0309 23.5274 13.0309 23.943C13.0309 24.3586 13.2003 24.7572 13.5018 25.051C13.8033 25.3449 14.2122 25.51 14.6386 25.51V25.51ZM14.6386 27.0769C15.4914 27.0769 16.3092 26.7467 16.9122 26.159C17.5152 25.5713 17.854 24.7742 17.854 23.943C17.854 23.1119 17.5152 22.3147 16.9122 21.727C16.3092 21.1393 15.4914 20.8091 14.6386 20.8091C13.7858 20.8091 12.968 21.1393 12.365 21.727C11.762 22.3147 11.4232 23.1119 11.4232 23.943C11.4232 24.7742 11.762 25.5713 12.365 26.159C12.968 26.7467 13.7858 27.0769 14.6386 27.0769Z" fill="#5969AA"/>
<path fill-rule="evenodd" clip-rule="evenodd" d="M13.5385 25.3846H11.8462V32.1538L14.3847 31.0256L16.9231 32.1538V25.3846H15.2308V29.7199L14.3847 29.3439L13.5385 29.7199V25.3846Z" fill="#5969AA"/>
</svg>
